HIERARCHY
ROOT Hips
{
  OFFSET 5.80788e-005 67.184 3.4734
  CHANNELS 6 Xposition Yposition Zposition Zrotation Xrotation Yrotation
  JOINT Chest
  {
    OFFSET 0 8.7983 -4.7612
    CHANNELS 3 Zrotation Xrotation Yrotation
    JOINT Chest2
    {
      OFFSET 0 8.0291 0.4195
      CHANNELS 3 Zrotation Xrotation Yrotation
      JOINT Chest3
      {
        OFFSET 0 9.9351 -2.2114
        CHANNELS 3 Zrotation Xrotation Yrotation
        JOINT Neck
        {
          OFFSET 0 22.3885 -0.4656
          CHANNELS 3 Zrotation Xrotation Yrotation
          JOINT Head
          {
            OFFSET -0.0001 12.643 3.4389
            CHANNELS 3 Zrotation Xrotation Yrotation
            End Site
            {
              OFFSET 0.0001 17.6655 0.5274
            }
          }
        }
        JOINT LeftCollar
        {
          OFFSET 2.2603 21.606 7.4023
          CHANNELS 3 Zrotation Xrotation Yrotation
          JOINT LeftShoulder
          {
            OFFSET 13.5163 -1.1332 -5.0146
            CHANNELS 3 Zrotation Xrotation Yrotation
            JOINT LeftElbow
            {
              OFFSET -0.0995 -28.05 -0.2431
              CHANNELS 3 Zrotation Xrotation Yrotation
              JOINT LeftWrist
              {
                OFFSET 0.0679 -23.3996 -0.1402
                CHANNELS 3 Zrotation Xrotation Yrotation
                JOINT LeftFinger1
                {
                  OFFSET 0.7932 -9.069 2.5189
                  CHANNELS 3 Zrotation Xrotation Yrotation
                  JOINT LeftFinger11
                  {
                    OFFSET -0.8272 -3.3923 0.5977
                    CHANNELS 3 Zrotation Xrotation Yrotation
                    JOINT LeftFinger12
                    {
                      OFFSET -0.5649 -2.3158 0.4082
                      CHANNELS 3 Zrotation Xrotation Yrotation
                      End Site
                      {
                        OFFSET -0.4919 -1.6479 0.2673
                      }
                    }
                  }
                }
                JOINT LeftFinger2
                {
                  OFFSET 0.9159 -9.2044 0.2193
                  CHANNELS 3 Zrotation Xrotation Yrotation
                  JOINT LeftFinger21
                  {
                    OFFSET 0.0117 -4.1944 -0.0248
                    CHANNELS 3 Zrotation Xrotation Yrotation
                    JOINT LeftFinger22
                    {
                      OFFSET 0.0071 -2.3249 -0.0142
                      CHANNELS 3 Zrotation Xrotation Yrotation
                      End Site
                      {
                        OFFSET -0.1475 -2.0882 0.0028
                      }
                    }
                  }
                }
                JOINT LeftFinger3
                {
                  OFFSET 0.6113 -8.7231 -2.0637
                  CHANNELS 3 Zrotation Xrotation Yrotation
                  JOINT LeftFinger31
                  {
                    OFFSET -0.1927 -3.8059 -0.2383
                    CHANNELS 3 Zrotation Xrotation Yrotation
                    JOINT LeftFinger32
                    {
                      OFFSET -0.1091 -2.1688 -0.1362
                      CHANNELS 3 Zrotation Xrotation Yrotation
                      End Site
                      {
                        OFFSET -0.2358 -1.9176 -0.0906
                      }
                    }
                  }
                }
                JOINT LeftFinger4
                {
                  OFFSET -0.6151 -8.0947 -3.5641
                  CHANNELS 3 Zrotation Xrotation Yrotation
                  JOINT LeftFinger41
                  {
                    OFFSET -0.4882 -2.341 -0.6462
                    CHANNELS 3 Zrotation Xrotation Yrotation
                    JOINT LeftFinger42
                    {
                      OFFSET -0.3575 -1.7167 -0.4742
                      CHANNELS 3 Zrotation Xrotation Yrotation
                      End Site
                      {
                        OFFSET -0.4187 -1.5237 -0.3496
                      }
                    }
                  }
                }
                JOINT LeftFinger0
                {
                  OFFSET -1.42 -1.8761 1.4223
                  CHANNELS 3 Zrotation Xrotation Yrotation
                  JOINT LeftFinger01
                  {
                    OFFSET -1.1471 -3.4929 2.6334
                    CHANNELS 3 Zrotation Xrotation Yrotation
                    JOINT LeftFinger02
                    {
                      OFFSET -0.823 -2.3 1.6571
                      CHANNELS 3 Zrotation Xrotation Yrotation
                      End Site
                      {
                        OFFSET -0.5822 -1.6914 1.1582
                      }
                    }
                  }
                }
              }
            }
          }
        }
        JOINT RightCollar
        {
          OFFSET -2.2603 21.606 7.4023
          CHANNELS 3 Zrotation Xrotation Yrotation
          JOINT RightShoulder
          {
            OFFSET -13.5187 -1.1334 -5.0155
            CHANNELS 3 Zrotation Xrotation Yrotation
            JOINT RightElbow
            {
              OFFSET 0.0994 -28.0499 -0.2431
              CHANNELS 3 Zrotation Xrotation Yrotation
              JOINT RightWrist
              {
                OFFSET -0.0679 -23.3996 -0.1402
                CHANNELS 3 Zrotation Xrotation Yrotation
                JOINT RightFinger1
                {
                  OFFSET -0.7932 -9.0691 2.5189
                  CHANNELS 3 Zrotation Xrotation Yrotation
                  JOINT RightFinger11
                  {
                    OFFSET 0.8272 -3.3923 0.5977
                    CHANNELS 3 Zrotation Xrotation Yrotation
                    JOINT RightFinger12
                    {
                      OFFSET 0.565 -2.3158 0.4082
                      CHANNELS 3 Zrotation Xrotation Yrotation
                      End Site
                      {
                        OFFSET 0.4919 -1.6479 0.2673
                      }
                    }
                  }
                }
                JOINT RightFinger2
                {
                  OFFSET -0.916 -9.2044 0.2193
                  CHANNELS 3 Zrotation Xrotation Yrotation
                  JOINT RightFinger21
                  {
                    OFFSET -0.0117 -4.1944 -0.0248
                    CHANNELS 3 Zrotation Xrotation Yrotation
                    JOINT RightFinger22
                    {
                      OFFSET -0.0071 -2.3249 -0.0142
                      CHANNELS 3 Zrotation Xrotation Yrotation
                      End Site
                      {
                        OFFSET 0.1475 -2.0882 0.0028
                      }
                    }
                  }
                }
                JOINT RightFinger3
                {
                  OFFSET -0.6113 -8.7231 -2.0637
                  CHANNELS 3 Zrotation Xrotation Yrotation
                  JOINT RightFinger31
                  {
                    OFFSET 0.1927 -3.8059 -0.2383
                    CHANNELS 3 Zrotation Xrotation Yrotation
                    JOINT RightFinger32
                    {
                      OFFSET 0.1091 -2.1688 -0.1362
                      CHANNELS 3 Zrotation Xrotation Yrotation
                      End Site
                      {
                        OFFSET 0.2358 -1.9176 -0.0906
                      }
                    }
                  }
                }
                JOINT RightFinger4
                {
                  OFFSET 0.6151 -8.0947 -3.564
                  CHANNELS 3 Zrotation Xrotation Yrotation
                  JOINT RightFinger41
                  {
                    OFFSET 0.4882 -2.341 -0.6462
                    CHANNELS 3 Zrotation Xrotation Yrotation
                    JOINT RightFinger42
                    {
                      OFFSET 0.3574 -1.7166 -0.4742
                      CHANNELS 3 Zrotation Xrotation Yrotation
                      End Site
                      {
                        OFFSET 0.4187 -1.5237 -0.3496
                      }
                    }
                  }
                }
                JOINT RightFinger0
                {
                  OFFSET 1.4199 -1.8761 1.4221
                  CHANNELS 3 Zrotation Xrotation Yrotation
                  JOINT RightFinger01
                  {
                    OFFSET 1.1472 -3.4929 2.6336
                    CHANNELS 3 Zrotation Xrotation Yrotation
                    JOINT RightFinger02
                    {
                      OFFSET 0.8229 -2.3 1.6571
                      CHANNELS 3 Zrotation Xrotation Yrotation
                      End Site
                      {
                        OFFSET 0.5822 -1.6914 1.1582
                      }
                    }
                  }
                }
              }
            }
          }
        }
      }
    }
  }
  JOINT RightHip
  {
    OFFSET -9.412 3.9771 -0.7758
    CHANNELS 3 Zrotation Xrotation Yrotation
    JOINT RightKnee
    {
      OFFSET -0.7531 -40.938 0
      CHANNELS 3 Zrotation Xrotation Yrotation
      JOINT RightAnkle
      {
        OFFSET 0 -40.1986 0
        CHANNELS 3 Zrotation Xrotation Yrotation
        JOINT RightToe
        {
          OFFSET 0 -4.4182 9.239
          CHANNELS 3 Zrotation Xrotation Yrotation
          End Site
          {
            OFFSET 0 0 6.1981
          }
        }
      }
    }
  }
  JOINT LeftHip
  {
    OFFSET 9.4119 3.9773 -0.7758
    CHANNELS 3 Zrotation Xrotation Yrotation
    JOINT LeftKnee
    {
      OFFSET 0.7532 -40.9383 0
      CHANNELS 3 Zrotation Xrotation Yrotation
      JOINT LeftAnkle
      {
        OFFSET 0 -40.1986 0
        CHANNELS 3 Zrotation Xrotation Yrotation
        JOINT LeftToe
        {
          OFFSET 0 -4.4182 9.239
          CHANNELS 3 Zrotation Xrotation Yrotation
          End Site
          {
            OFFSET 0 0 6.1981
          }
        }
      }
    }
  }
}
MOTION
Frames:	5
Frame Time:	0.0333333
-0.783969 11.3334 19.9285 -1.44609e-014 46.6934 -180 -0.338058 14.6008 -0.0105816 -0.709775 29.2015 0.0753144 -0.709772 29.2014 0.0753133 -10.0431 -31.5054 -5.51044 -10.6626 -11.1541 -26.6703 11.0971 8.91038 -33.1992 34.7744 -22.6334 13.529 -6.56962 1.26754 -1.08388 -9.05178 -14.0339 5.42171 7.95139e-016 -2.70347e-014 -6.36111e-015 1.56894e-006 -3.91066e-006 4.58509e-006 4.24382e-007 -1.72095e-006 -3.42131e-008 7.95139e-016 -2.70347e-014 -6.36111e-015 -0.0128277 0.00232802 9.33638e-005 4.24391e-007 -1.72103e-006 -3.41958e-008 7.95139e-016 -2.70347e-014 -6.36111e-015 -0.0160554 0.00300136 0.000858845 4.24393e-007 -1.72104e-006 -3.41913e-008 7.95139e-016 -2.70347e-014 -6.36111e-015 -0.0125796 0.00311722 0.00281868 -1.33494e-006 -1.35392e-006 3.02872e-006 7.95139e-016 -2.70347e-014 -6.36111e-015 1.56894e-006 -3.91066e-006 4.58509e-006 4.24382e-007 -1.72095e-006 -3.42131e-008 -11.3708 9.49167 28.3442 -33.8231 -23.9412 -9.4245 6.13045 1.17578 1.24298 9.11235 -14.4924 -6.38206 1.18295e-006 1.27206e-006 2.9241e-006 6.25196e-006 -4.53596e-007 2.75357e-006 -3.38117e-007 -1.26145e-006 -2.95252e-006 1.18295e-006 1.27206e-006 2.9241e-006 0.0129739 0.0023255 -8.16609e-005 6.7589e-006 -1.97358e-006 -2.27096e-007 1.18295e-006 1.27206e-006 2.9241e-006 0.0162709 0.00302509 -0.000865143 1.19271e-015 0 3.18055e-015 1.18295e-006 1.27206e-006 2.9241e-006 0.0145645 0.00367927 -0.00325602 -2.70335e-006 -5.89808e-007 -1.3912e-006 1.18295e-006 1.27206e-006 2.9241e-006 6.25196e-006 -4.53596e-007 2.75357e-006 -3.38117e-007 -1.26145e-006 -2.95252e-006 -47.5459 -26.5157 -81.9882 -7.75787 50.8091 60.42 -14.9227 27.2212 -32.9772 3.11838e-006 -2.09739e-006 -1.16133e-006 47.5283 -26.5176 81.9694 7.73375 50.8079 -60.4023 14.9108 27.2189 32.9688 -3.18055e-015 2.24329e-008 -0 
-0.783963 11.2047 20.2143 -1.42106e-014 45.7145 -180 -0.338483 14.6533 -0.00962858 -0.71123 29.3065 0.0778828 -0.711227 29.3064 0.0778819 -9.84875 -30.4472 -5.27914 -9.95062 -10.7831 -26.3832 11.339 8.3759 -33.2971 34.7744 -22.6334 13.529 -6.56963 1.26755 -1.08388 -8.45574 -14.814 5.88544 -1.07473e-005 1.39598e-006 -1.14466e-005 3.01551e-006 2.85967e-006 -3.17577e-006 -8.48344e-007 1.45967e-006 7.10846e-008 -1.07473e-005 1.39598e-006 -1.14466e-005 -0.0127911 0.00232198 8.58091e-005 4.41391e-032 7.95139e-016 -3.18055e-015 -1.07473e-005 1.39598e-006 -1.14466e-005 -0.0160651 0.00300326 0.000857271 -1.59028e-015 -2.46493e-014 -3.18055e-015 -1.07473e-005 1.39598e-006 -1.14466e-005 -0.0125334 0.00310699 0.00281901 -4.24181e-007 1.71892e-006 3.55209e-008 -1.07473e-005 1.39598e-006 -1.14466e-005 3.01551e-006 2.85967e-006 -3.17577e-006 -8.48344e-007 1.45967e-006 7.10846e-008 -11.5688 9.00561 28.4705 -33.8231 -23.9412 -9.42454 6.1305 1.17581 1.24299 8.50732 -15.299 -6.94061 1.7597e-007 6.28131e-007 1.4761e-006 -3.97569e-016 1.93958e-006 -9.54166e-015 -1.98785e-015 1.59028e-015 -0 1.7597e-007 6.28131e-007 1.4761e-006 0.0129413 0.00231781 -8.27095e-005 7.91769e-006 2.47046e-006 -4.74127e-006 1.7597e-007 6.28131e-007 1.4761e-006 0.0163224 0.00303276 -0.000867833 -7.95139e-016 1.59028e-015 -0 1.7597e-007 6.28131e-007 1.4761e-006 0.0145791 0.00367982 -0.00326204 7.95139e-016 -7.95139e-016 6.36111e-015 1.7597e-007 6.28131e-007 1.4761e-006 -3.97569e-016 1.93958e-006 -9.54166e-015 -1.98785e-015 1.59028e-015 -0 -47.5502 -27.3313 -82.3242 -7.39719 50.2747 60.1623 -14.5445 27.5183 -33.3438 3.23442e-006 -6.87862e-006 6.21298e-006 47.5314 -27.3332 82.3041 7.37193 50.273 -60.1434 14.5326 27.5159 33.335 3.18055e-015 4.27409e-007 -6.36111e-015 
-0.783957 11.0767 20.5024 -1.39691e-014 44.736 -180 -0.338915 14.7059 -0.00867623 -0.712705 29.4116 0.0804561 -0.712701 29.4115 0.0804546 -9.66073 -29.3845 -5.05362 -9.24001 -10.4079 -26.1007 11.5795 7.84111 -33.3926 34.7744 -22.6334 13.529 -6.5696 1.26757 -1.08386 -7.85113 -15.5891 6.35909 -1.19271e-015 1.59028e-015 6.36111e-015 3.97569e-016 1.59028e-015 -0 -4.55328e-007 -2.41668e-006 2.96465e-006 -1.19271e-015 1.59028e-015 6.36111e-015 -0.0128176 0.00232037 8.61485e-005 -8.47927e-007 3.43399e-006 7.37642e-008 -1.19271e-015 1.59028e-015 6.36111e-015 -0.0160446 0.00299058 0.000858261 -7.42093e-007 3.94374e-006 -4.64805e-006 -1.19271e-015 1.59028e-015 6.36111e-015 -0.0125524 0.00310561 0.00281391 -7.10083e-007 1.50375e-006 -7.57585e-006 -1.19271e-015 1.59028e-015 6.36111e-015 3.97569e-016 1.59028e-015 -0 -4.55328e-007 -2.41668e-006 2.96465e-006 -11.7654 8.51917 28.5948 -33.823 -23.9412 -9.42451 6.1304 1.17576 1.24299 7.89209 -16.0994 -7.50993 -1.19271e-015 2.38542e-015 -1.59028e-014 -3.65764e-007 -1.24301e-006 -2.95176e-006 3.65764e-007 1.24301e-006 2.95176e-006 -1.19271e-015 2.38542e-015 -1.59028e-014 0.0129349 0.0023108 -9.15911e-005 8.44104e-007 9.79324e-007 -3.4258e-008 -1.19271e-015 2.38542e-015 -1.59028e-014 0.0163517 0.00303215 -0.000876768 -1.82882e-014 1.93188e-006 -6.36111e-015 -1.19271e-015 2.38542e-015 -1.59028e-014 0.014622 0.00368801 -0.00327199 1.98785e-015 -7.95139e-016 -0 -1.19271e-015 2.38542e-015 -1.59028e-014 -3.65764e-007 -1.24301e-006 -2.95176e-006 3.65764e-007 1.24301e-006 2.95176e-006 -47.5601 -28.147 -82.6627 -7.04424 49.7396 59.9125 -14.1616 27.8131 -33.7135 -3.18055e-015 2.2417e-008 -1.27222e-014 47.5401 -28.1485 82.6414 7.01744 49.7376 -59.8925 14.1498 27.8107 33.7044 -1.55887e-006 -3.61407e-006 5.80845e-007 
-0.78395 10.9495 20.7927 -1.37356e-014 43.7579 -180 -0.339343 14.7584 -0.00771601 -0.714176 29.5166 0.0830487 -0.714172 29.5165 0.0830473 -9.47734 -28.3176 -4.83361 -8.53083 -10.0286 -25.8227 11.8189 7.30605 -33.4857 34.7743 -22.6334 13.529 -6.56953 1.26753 -1.08388 -7.23786 -16.3588 6.84283 -3.81356e-006 -3.83811e-007 3.44552e-007 -3.97569e-016 -2.38542e-015 9.54166e-015 -3.97569e-016 -2.38542e-015 9.54166e-015 -3.81356e-006 -3.83811e-007 3.44552e-007 -0.0128096 0.00232318 9.31726e-005 -4.06783e-007 -1.23594e-006 -2.89014e-006 -3.81356e-006 -3.83811e-007 3.44552e-007 -0.016056 0.00300189 0.000857231 4.23741e-006 -3.69704e-006 -3.82618e-007 -3.81356e-006 -3.83811e-007 3.44552e-007 -0.0126425 0.00313739 0.00283036 3.97569e-016 0 -0 -3.81356e-006 -3.83811e-007 3.44552e-007 -3.97569e-016 -2.38542e-015 9.54166e-015 -3.97569e-016 -2.38542e-015 9.54166e-015 -11.9607 8.03243 28.7173 -33.8231 -23.9412 -9.42454 6.13044 1.1758 1.24299 7.26636 -16.8935 -8.09024 -2.89126e-006 6.64139e-006 1.82388e-006 1.22327e-006 7.65517e-007 2.91393e-006 1.93915e-008 4.035e-007 4.6632e-006 -2.89126e-006 6.64139e-006 1.82388e-006 0.0129373 0.00230957 -8.80761e-005 1.94873e-008 2.33796e-006 4.6632e-006 -2.89126e-006 6.64139e-006 1.82388e-006 0.0162832 0.0030198 -0.00086546 3.9757e-016 1.0934e-006 -9.54166e-015 -2.89126e-006 6.64139e-006 1.82388e-006 0.0145394 0.00366787 -0.0032569 1.94119e-008 1.35831e-006 4.66313e-006 -2.89126e-006 6.64139e-006 1.82388e-006 1.22327e-006 7.65517e-007 2.91393e-006 1.93915e-008 4.035e-007 4.6632e-006 -47.5754 -28.9624 -83.0037 -6.69832 49.2037 59.6704 -13.7739 28.1059 -34.0865 -2.33821e-006 3.35031e-006 8.70922e-007 47.5542 -28.9638 82.9811 6.67045 49.2013 -59.6493 13.7623 28.1034 34.077 -1.65274e-007 -3.14154e-006 -5.08856e-006 
-0.783945 10.8233 21.0851 -1.35098e-014 42.7805 -180 -0.339772 14.8109 -0.0067517 -0.715658 29.6216 0.0856543 -0.715655 29.6215 0.0856532 -9.29847 -27.2467 -4.6189 -7.8231 -9.64531 -25.5493 12.057 6.77066 -33.5764 34.7744 -22.6334 13.529 -6.56962 1.26755 -1.08386 -6.61575 -17.123 7.33679 4.23497e-007 -1.71281e-006 -3.96943e-008 3.4201e-007 -2.68509e-007 4.68209e-006 4.22009e-007 -7.4002e-007 2.88925e-006 4.23497e-007 -1.71281e-006 -3.96943e-008 -0.0128017 0.00232146 8.56859e-005 4.23506e-007 -1.71254e-006 -3.96772e-008 4.23497e-007 -1.71281e-006 -3.96943e-008 -0.0160168 0.00298469 0.000856641 1.59028e-015 7.95139e-016 -3.18055e-015 4.23497e-007 -1.71281e-006 -3.96943e-008 -0.0126141 0.00312841 0.00282709 -2.62459e-006 -1.57979e-006 7.88879e-006 4.23497e-007 -1.71281e-006 -3.96943e-008 3.4201e-007 -2.68509e-007 4.68209e-006 4.22009e-007 -7.4002e-007 2.88925e-006 -12.1546 7.54531 28.838 -33.8231 -23.9412 -9.42453 6.13048 1.17577 1.24298 6.63 -17.6807 -8.68162 8.43306e-007 3.39789e-006 -4.03731e-008 1.04e-006 5.316e-006 1.43494e-006 1.09653e-006 6.22194e-007 -4.50667e-006 8.43306e-007 3.39789e-006 -4.03731e-008 0.0129249 0.00231248 -9.65439e-005 -1.59028e-015 2.38542e-015 -9.54166e-015 8.43306e-007 3.39789e-006 -4.03731e-008 0.0163657 0.00303948 -0.000879288 8.43344e-007 1.4654e-006 -4.03303e-008 8.43306e-007 3.39789e-006 -4.03731e-008 0.0145555 0.00367894 -0.00326088 2.72641e-006 4.65719e-007 1.35439e-006 8.43306e-007 3.39789e-006 -4.03731e-008 1.04e-006 5.316e-006 1.43494e-006 1.09653e-006 6.22194e-007 -4.50667e-006 -47.5965 -29.7776 -83.3475 -6.35951 48.6673 59.4356 -13.3816 28.3964 -34.4626 -2.32517e-007 -8.53359e-007 7.9105e-006 47.5739 -29.7789 83.3235 6.33053 48.6644 -59.4134 13.3701 28.3939 34.4528 -9.43676e-007 -4.31393e-006 -4.79855e-006 
